<mxfile host="app.diagrams.net" modified="2023-05-29T08:15:01.958Z" agent="Mozilla/5.0 (Windows NT 10.0; Win64; x64) AppleWebKit/537.36 (KHTML, like Gecko) Chrome/113.0.0.0 Safari/537.36 Edg/113.0.1774.50" etag="KOfSdV16687OSDsKK9Nx" version="21.3.5" type="device">
  <diagram id="C5RBs43oDa-KdzZeNtuy" name="Page-1">
    <mxGraphModel dx="2530" dy="2487" grid="1" gridSize="10" guides="1" tooltips="1" connect="1" arrows="1" fold="1" page="1" pageScale="1" pageWidth="827" pageHeight="1169" math="0" shadow="0">
      <root>
        <mxCell id="WIyWlLk6GJQsqaUBKTNV-0" />
        <mxCell id="WIyWlLk6GJQsqaUBKTNV-1" parent="WIyWlLk6GJQsqaUBKTNV-0" />
        <mxCell id="zkfFHV4jXpPFQw0GAbJ--0" value="BillTO" style="swimlane;fontStyle=2;align=center;verticalAlign=top;childLayout=stackLayout;horizontal=1;startSize=26;horizontalStack=0;resizeParent=1;resizeLast=0;collapsible=1;marginBottom=0;rounded=1;shadow=0;strokeWidth=1;fillColor=#fff2cc;strokeColor=#d6b656;gradientColor=none;" parent="WIyWlLk6GJQsqaUBKTNV-1" vertex="1">
          <mxGeometry x="217.5" y="190" width="160" height="216" as="geometry">
            <mxRectangle x="230" y="140" width="160" height="26" as="alternateBounds" />
          </mxGeometry>
        </mxCell>
        <mxCell id="zkfFHV4jXpPFQw0GAbJ--1" value="- id: String" style="text;align=left;verticalAlign=top;spacingLeft=4;spacingRight=4;overflow=hidden;rotatable=0;points=[[0,0.5],[1,0.5]];portConstraint=eastwest;" parent="zkfFHV4jXpPFQw0GAbJ--0" vertex="1">
          <mxGeometry y="26" width="160" height="26" as="geometry" />
        </mxCell>
        <mxCell id="zkfFHV4jXpPFQw0GAbJ--2" value="- bill_code: String" style="text;align=left;verticalAlign=top;spacingLeft=4;spacingRight=4;overflow=hidden;rotatable=0;points=[[0,0.5],[1,0.5]];portConstraint=eastwest;rounded=0;shadow=0;html=0;" parent="zkfFHV4jXpPFQw0GAbJ--0" vertex="1">
          <mxGeometry y="52" width="160" height="26" as="geometry" />
        </mxCell>
        <mxCell id="zkfFHV4jXpPFQw0GAbJ--3" value="- description: String" style="text;align=left;verticalAlign=top;spacingLeft=4;spacingRight=4;overflow=hidden;rotatable=0;points=[[0,0.5],[1,0.5]];portConstraint=eastwest;rounded=0;shadow=0;html=0;" parent="zkfFHV4jXpPFQw0GAbJ--0" vertex="1">
          <mxGeometry y="78" width="160" height="26" as="geometry" />
        </mxCell>
        <mxCell id="BAjZt_IiuYkgOVVZva09-0" value="- value: Double" style="text;align=left;verticalAlign=top;spacingLeft=4;spacingRight=4;overflow=hidden;rotatable=0;points=[[0,0.5],[1,0.5]];portConstraint=eastwest;rounded=0;shadow=0;html=0;" vertex="1" parent="zkfFHV4jXpPFQw0GAbJ--0">
          <mxGeometry y="104" width="160" height="26" as="geometry" />
        </mxCell>
        <mxCell id="BAjZt_IiuYkgOVVZva09-1" value="- expiration_date: String" style="text;align=left;verticalAlign=top;spacingLeft=4;spacingRight=4;overflow=hidden;rotatable=0;points=[[0,0.5],[1,0.5]];portConstraint=eastwest;rounded=0;shadow=0;html=0;" vertex="1" parent="zkfFHV4jXpPFQw0GAbJ--0">
          <mxGeometry y="130" width="160" height="26" as="geometry" />
        </mxCell>
        <mxCell id="BAjZt_IiuYkgOVVZva09-2" value="- paid_date: String" style="text;align=left;verticalAlign=top;spacingLeft=4;spacingRight=4;overflow=hidden;rotatable=0;points=[[0,0.5],[1,0.5]];portConstraint=eastwest;rounded=0;shadow=0;html=0;" vertex="1" parent="zkfFHV4jXpPFQw0GAbJ--0">
          <mxGeometry y="156" width="160" height="26" as="geometry" />
        </mxCell>
        <mxCell id="zkfFHV4jXpPFQw0GAbJ--4" value="" style="line;html=1;strokeWidth=1;align=left;verticalAlign=middle;spacingTop=-1;spacingLeft=3;spacingRight=3;rotatable=0;labelPosition=right;points=[];portConstraint=eastwest;strokeColor=#D6B656;" parent="zkfFHV4jXpPFQw0GAbJ--0" vertex="1">
          <mxGeometry y="182" width="160" height="8" as="geometry" />
        </mxCell>
        <mxCell id="zkfFHV4jXpPFQw0GAbJ--5" value="...getters and setters" style="text;align=left;verticalAlign=top;spacingLeft=4;spacingRight=4;overflow=hidden;rotatable=0;points=[[0,0.5],[1,0.5]];portConstraint=eastwest;" parent="zkfFHV4jXpPFQw0GAbJ--0" vertex="1">
          <mxGeometry y="190" width="160" height="26" as="geometry" />
        </mxCell>
        <mxCell id="BAjZt_IiuYkgOVVZva09-12" value="Audit" style="swimlane;fontStyle=2;align=center;verticalAlign=top;childLayout=stackLayout;horizontal=1;startSize=26;horizontalStack=0;resizeParent=1;resizeLast=0;collapsible=1;marginBottom=0;rounded=1;shadow=0;strokeWidth=1;fillColor=#fff2cc;strokeColor=#d6b656;gradientColor=none;" vertex="1" parent="WIyWlLk6GJQsqaUBKTNV-1">
          <mxGeometry x="47.5" y="190" width="160" height="170" as="geometry">
            <mxRectangle x="230" y="140" width="160" height="26" as="alternateBounds" />
          </mxGeometry>
        </mxCell>
        <mxCell id="BAjZt_IiuYkgOVVZva09-13" value="- id: ObjectId " style="text;align=left;verticalAlign=top;spacingLeft=4;spacingRight=4;overflow=hidden;rotatable=0;points=[[0,0.5],[1,0.5]];portConstraint=eastwest;" vertex="1" parent="BAjZt_IiuYkgOVVZva09-12">
          <mxGeometry y="26" width="160" height="26" as="geometry" />
        </mxCell>
        <mxCell id="BAjZt_IiuYkgOVVZva09-14" value="- register_code: String" style="text;align=left;verticalAlign=top;spacingLeft=4;spacingRight=4;overflow=hidden;rotatable=0;points=[[0,0.5],[1,0.5]];portConstraint=eastwest;rounded=0;shadow=0;html=0;" vertex="1" parent="BAjZt_IiuYkgOVVZva09-12">
          <mxGeometry y="52" width="160" height="26" as="geometry" />
        </mxCell>
        <mxCell id="BAjZt_IiuYkgOVVZva09-15" value="- operation: String" style="text;align=left;verticalAlign=top;spacingLeft=4;spacingRight=4;overflow=hidden;rotatable=0;points=[[0,0.5],[1,0.5]];portConstraint=eastwest;rounded=0;shadow=0;html=0;" vertex="1" parent="BAjZt_IiuYkgOVVZva09-12">
          <mxGeometry y="78" width="160" height="26" as="geometry" />
        </mxCell>
        <mxCell id="BAjZt_IiuYkgOVVZva09-16" value="- timestamp: Double" style="text;align=left;verticalAlign=top;spacingLeft=4;spacingRight=4;overflow=hidden;rotatable=0;points=[[0,0.5],[1,0.5]];portConstraint=eastwest;rounded=0;shadow=0;html=0;" vertex="1" parent="BAjZt_IiuYkgOVVZva09-12">
          <mxGeometry y="104" width="160" height="26" as="geometry" />
        </mxCell>
        <mxCell id="BAjZt_IiuYkgOVVZva09-19" value="" style="line;html=1;strokeWidth=1;align=left;verticalAlign=middle;spacingTop=-1;spacingLeft=3;spacingRight=3;rotatable=0;labelPosition=right;points=[];portConstraint=eastwest;strokeColor=#D6B656;" vertex="1" parent="BAjZt_IiuYkgOVVZva09-12">
          <mxGeometry y="130" width="160" height="8" as="geometry" />
        </mxCell>
        <mxCell id="BAjZt_IiuYkgOVVZva09-20" value="...getters and setters" style="text;align=left;verticalAlign=top;spacingLeft=4;spacingRight=4;overflow=hidden;rotatable=0;points=[[0,0.5],[1,0.5]];portConstraint=eastwest;" vertex="1" parent="BAjZt_IiuYkgOVVZva09-12">
          <mxGeometry y="138" width="160" height="26" as="geometry" />
        </mxCell>
        <mxCell id="BAjZt_IiuYkgOVVZva09-21" value="Bill" style="swimlane;fontStyle=2;align=center;verticalAlign=top;childLayout=stackLayout;horizontal=1;startSize=26;horizontalStack=0;resizeParent=1;resizeLast=0;collapsible=1;marginBottom=0;rounded=1;shadow=0;strokeWidth=1;fillColor=#fff2cc;strokeColor=#d6b656;gradientColor=none;" vertex="1" parent="WIyWlLk6GJQsqaUBKTNV-1">
          <mxGeometry x="387.5" y="190" width="160" height="242" as="geometry">
            <mxRectangle x="230" y="140" width="160" height="26" as="alternateBounds" />
          </mxGeometry>
        </mxCell>
        <mxCell id="BAjZt_IiuYkgOVVZva09-22" value="- id: ObjectId " style="text;align=left;verticalAlign=top;spacingLeft=4;spacingRight=4;overflow=hidden;rotatable=0;points=[[0,0.5],[1,0.5]];portConstraint=eastwest;" vertex="1" parent="BAjZt_IiuYkgOVVZva09-21">
          <mxGeometry y="26" width="160" height="26" as="geometry" />
        </mxCell>
        <mxCell id="BAjZt_IiuYkgOVVZva09-23" value="- bill_code: String" style="text;align=left;verticalAlign=top;spacingLeft=4;spacingRight=4;overflow=hidden;rotatable=0;points=[[0,0.5],[1,0.5]];portConstraint=eastwest;rounded=0;shadow=0;html=0;" vertex="1" parent="BAjZt_IiuYkgOVVZva09-21">
          <mxGeometry y="52" width="160" height="26" as="geometry" />
        </mxCell>
        <mxCell id="BAjZt_IiuYkgOVVZva09-24" value="- description: String" style="text;align=left;verticalAlign=top;spacingLeft=4;spacingRight=4;overflow=hidden;rotatable=0;points=[[0,0.5],[1,0.5]];portConstraint=eastwest;rounded=0;shadow=0;html=0;" vertex="1" parent="BAjZt_IiuYkgOVVZva09-21">
          <mxGeometry y="78" width="160" height="26" as="geometry" />
        </mxCell>
        <mxCell id="BAjZt_IiuYkgOVVZva09-25" value="- value: Double" style="text;align=left;verticalAlign=top;spacingLeft=4;spacingRight=4;overflow=hidden;rotatable=0;points=[[0,0.5],[1,0.5]];portConstraint=eastwest;rounded=0;shadow=0;html=0;" vertex="1" parent="BAjZt_IiuYkgOVVZva09-21">
          <mxGeometry y="104" width="160" height="26" as="geometry" />
        </mxCell>
        <mxCell id="BAjZt_IiuYkgOVVZva09-26" value="- expiration_date: String" style="text;align=left;verticalAlign=top;spacingLeft=4;spacingRight=4;overflow=hidden;rotatable=0;points=[[0,0.5],[1,0.5]];portConstraint=eastwest;rounded=0;shadow=0;html=0;" vertex="1" parent="BAjZt_IiuYkgOVVZva09-21">
          <mxGeometry y="130" width="160" height="26" as="geometry" />
        </mxCell>
        <mxCell id="BAjZt_IiuYkgOVVZva09-27" value="- paid_date: String" style="text;align=left;verticalAlign=top;spacingLeft=4;spacingRight=4;overflow=hidden;rotatable=0;points=[[0,0.5],[1,0.5]];portConstraint=eastwest;rounded=0;shadow=0;html=0;" vertex="1" parent="BAjZt_IiuYkgOVVZva09-21">
          <mxGeometry y="156" width="160" height="26" as="geometry" />
        </mxCell>
        <mxCell id="BAjZt_IiuYkgOVVZva09-28" value="" style="line;html=1;strokeWidth=1;align=left;verticalAlign=middle;spacingTop=-1;spacingLeft=3;spacingRight=3;rotatable=0;labelPosition=right;points=[];portConstraint=eastwest;strokeColor=#D6B656;" vertex="1" parent="BAjZt_IiuYkgOVVZva09-21">
          <mxGeometry y="182" width="160" height="8" as="geometry" />
        </mxCell>
        <mxCell id="BAjZt_IiuYkgOVVZva09-30" value="+ Bill(): void" style="text;align=left;verticalAlign=top;spacingLeft=4;spacingRight=4;overflow=hidden;rotatable=0;points=[[0,0.5],[1,0.5]];portConstraint=eastwest;" vertex="1" parent="BAjZt_IiuYkgOVVZva09-21">
          <mxGeometry y="190" width="160" height="26" as="geometry" />
        </mxCell>
        <mxCell id="BAjZt_IiuYkgOVVZva09-29" value="...getters and setters" style="text;align=left;verticalAlign=top;spacingLeft=4;spacingRight=4;overflow=hidden;rotatable=0;points=[[0,0.5],[1,0.5]];portConstraint=eastwest;" vertex="1" parent="BAjZt_IiuYkgOVVZva09-21">
          <mxGeometry y="216" width="160" height="26" as="geometry" />
        </mxCell>
        <mxCell id="BAjZt_IiuYkgOVVZva09-32" value="&lt;h1&gt;Classes de Dados/Entidades&lt;/h1&gt;" style="text;html=1;strokeColor=none;fillColor=none;align=left;verticalAlign=middle;whiteSpace=wrap;rounded=0;" vertex="1" parent="WIyWlLk6GJQsqaUBKTNV-1">
          <mxGeometry x="12.5" y="140" width="435" height="30" as="geometry" />
        </mxCell>
        <mxCell id="BAjZt_IiuYkgOVVZva09-42" value="BillBean " style="swimlane;fontStyle=2;align=center;verticalAlign=top;childLayout=stackLayout;horizontal=1;startSize=26;horizontalStack=0;resizeParent=1;resizeLast=0;collapsible=1;marginBottom=0;rounded=1;shadow=0;strokeWidth=1;fillColor=#fff2cc;strokeColor=#d6b656;gradientColor=none;" vertex="1" parent="WIyWlLk6GJQsqaUBKTNV-1">
          <mxGeometry x="47.5" y="760" width="760" height="294" as="geometry">
            <mxRectangle x="230" y="140" width="160" height="26" as="alternateBounds" />
          </mxGeometry>
        </mxCell>
        <mxCell id="BAjZt_IiuYkgOVVZva09-43" value="- billDAO: BillDAO " style="text;align=left;verticalAlign=top;spacingLeft=4;spacingRight=4;overflow=hidden;rotatable=0;points=[[0,0.5],[1,0.5]];portConstraint=eastwest;" vertex="1" parent="BAjZt_IiuYkgOVVZva09-42">
          <mxGeometry y="26" width="760" height="26" as="geometry" />
        </mxCell>
        <mxCell id="BAjZt_IiuYkgOVVZva09-44" value="- auditting: AuditMessageSender " style="text;align=left;verticalAlign=top;spacingLeft=4;spacingRight=4;overflow=hidden;rotatable=0;points=[[0,0.5],[1,0.5]];portConstraint=eastwest;rounded=0;shadow=0;html=0;" vertex="1" parent="BAjZt_IiuYkgOVVZva09-42">
          <mxGeometry y="52" width="760" height="26" as="geometry" />
        </mxCell>
        <mxCell id="BAjZt_IiuYkgOVVZva09-47" value="" style="line;html=1;strokeWidth=1;align=left;verticalAlign=middle;spacingTop=-1;spacingLeft=3;spacingRight=3;rotatable=0;labelPosition=right;points=[];portConstraint=eastwest;strokeColor=#D6B656;" vertex="1" parent="BAjZt_IiuYkgOVVZva09-42">
          <mxGeometry y="78" width="760" height="8" as="geometry" />
        </mxCell>
        <mxCell id="BAjZt_IiuYkgOVVZva09-48" value="+ create(BillTO billTO): ResponseMessageTO " style="text;align=left;verticalAlign=top;spacingLeft=4;spacingRight=4;overflow=hidden;rotatable=0;points=[[0,0.5],[1,0.5]];portConstraint=eastwest;" vertex="1" parent="BAjZt_IiuYkgOVVZva09-42">
          <mxGeometry y="86" width="760" height="26" as="geometry" />
        </mxCell>
        <mxCell id="BAjZt_IiuYkgOVVZva09-60" value="+ update(BillTO billTO): ResponseMessageTO " style="text;align=left;verticalAlign=top;spacingLeft=4;spacingRight=4;overflow=hidden;rotatable=0;points=[[0,0.5],[1,0.5]];portConstraint=eastwest;" vertex="1" parent="BAjZt_IiuYkgOVVZva09-42">
          <mxGeometry y="112" width="760" height="26" as="geometry" />
        </mxCell>
        <mxCell id="BAjZt_IiuYkgOVVZva09-61" value="+ list(String searchText, String minExpirationDate, String maxExpirationDate, String minPaidDate, String maxPaidDate): ResponseBillList " style="text;align=left;verticalAlign=top;spacingLeft=4;spacingRight=4;overflow=hidden;rotatable=0;points=[[0,0.5],[1,0.5]];portConstraint=eastwest;" vertex="1" parent="BAjZt_IiuYkgOVVZva09-42">
          <mxGeometry y="138" width="760" height="26" as="geometry" />
        </mxCell>
        <mxCell id="BAjZt_IiuYkgOVVZva09-63" value="+ findOne(String id): BillTO" style="text;align=left;verticalAlign=top;spacingLeft=4;spacingRight=4;overflow=hidden;rotatable=0;points=[[0,0.5],[1,0.5]];portConstraint=eastwest;" vertex="1" parent="BAjZt_IiuYkgOVVZva09-42">
          <mxGeometry y="164" width="760" height="26" as="geometry" />
        </mxCell>
        <mxCell id="BAjZt_IiuYkgOVVZva09-62" value="+ delete(String id): ResponseMessageTO " style="text;align=left;verticalAlign=top;spacingLeft=4;spacingRight=4;overflow=hidden;rotatable=0;points=[[0,0.5],[1,0.5]];portConstraint=eastwest;" vertex="1" parent="BAjZt_IiuYkgOVVZva09-42">
          <mxGeometry y="190" width="760" height="26" as="geometry" />
        </mxCell>
        <mxCell id="BAjZt_IiuYkgOVVZva09-66" value="- convertToBill(BillTO billTO): Bill " style="text;align=left;verticalAlign=top;spacingLeft=4;spacingRight=4;overflow=hidden;rotatable=0;points=[[0,0.5],[1,0.5]];portConstraint=eastwest;" vertex="1" parent="BAjZt_IiuYkgOVVZva09-42">
          <mxGeometry y="216" width="760" height="26" as="geometry" />
        </mxCell>
        <mxCell id="BAjZt_IiuYkgOVVZva09-65" value="- convertToBillTO(Bill bill): BillTO " style="text;align=left;verticalAlign=top;spacingLeft=4;spacingRight=4;overflow=hidden;rotatable=0;points=[[0,0.5],[1,0.5]];portConstraint=eastwest;" vertex="1" parent="BAjZt_IiuYkgOVVZva09-42">
          <mxGeometry y="242" width="760" height="26" as="geometry" />
        </mxCell>
        <mxCell id="BAjZt_IiuYkgOVVZva09-64" value="- convertToBillTOList(List&lt;Bill&gt; bills): List&lt;BillTO&gt;" style="text;align=left;verticalAlign=top;spacingLeft=4;spacingRight=4;overflow=hidden;rotatable=0;points=[[0,0.5],[1,0.5]];portConstraint=eastwest;" vertex="1" parent="BAjZt_IiuYkgOVVZva09-42">
          <mxGeometry y="268" width="760" height="26" as="geometry" />
        </mxCell>
        <mxCell id="BAjZt_IiuYkgOVVZva09-59" value="&lt;h1&gt;Classes de Beans&lt;/h1&gt;" style="text;html=1;strokeColor=none;fillColor=none;align=left;verticalAlign=middle;whiteSpace=wrap;rounded=0;" vertex="1" parent="WIyWlLk6GJQsqaUBKTNV-1">
          <mxGeometry x="12.5" y="705" width="440" height="30" as="geometry" />
        </mxCell>
        <mxCell id="BAjZt_IiuYkgOVVZva09-67" value="&lt;h1&gt;Classes de Padronização de Respostas&lt;/h1&gt;" style="text;html=1;strokeColor=none;fillColor=none;align=left;verticalAlign=middle;whiteSpace=wrap;rounded=0;" vertex="1" parent="WIyWlLk6GJQsqaUBKTNV-1">
          <mxGeometry x="12.5" y="460" width="656" height="30" as="geometry" />
        </mxCell>
        <mxCell id="BAjZt_IiuYkgOVVZva09-68" value="ResponseMessageTO " style="swimlane;fontStyle=2;align=center;verticalAlign=top;childLayout=stackLayout;horizontal=1;startSize=26;horizontalStack=0;resizeParent=1;resizeLast=0;collapsible=1;marginBottom=0;rounded=1;shadow=0;strokeWidth=1;fillColor=#fff2cc;strokeColor=#d6b656;gradientColor=none;" vertex="1" parent="WIyWlLk6GJQsqaUBKTNV-1">
          <mxGeometry x="47.5" y="510" width="310" height="120" as="geometry">
            <mxRectangle x="230" y="140" width="160" height="26" as="alternateBounds" />
          </mxGeometry>
        </mxCell>
        <mxCell id="BAjZt_IiuYkgOVVZva09-69" value="- message: String" style="text;align=left;verticalAlign=top;spacingLeft=4;spacingRight=4;overflow=hidden;rotatable=0;points=[[0,0.5],[1,0.5]];portConstraint=eastwest;" vertex="1" parent="BAjZt_IiuYkgOVVZva09-68">
          <mxGeometry y="26" width="310" height="26" as="geometry" />
        </mxCell>
        <mxCell id="BAjZt_IiuYkgOVVZva09-73" value="" style="line;html=1;strokeWidth=1;align=left;verticalAlign=middle;spacingTop=-1;spacingLeft=3;spacingRight=3;rotatable=0;labelPosition=right;points=[];portConstraint=eastwest;strokeColor=#D6B656;" vertex="1" parent="BAjZt_IiuYkgOVVZva09-68">
          <mxGeometry y="52" width="310" height="8" as="geometry" />
        </mxCell>
        <mxCell id="BAjZt_IiuYkgOVVZva09-75" value="+ ResponseMessageTO(String message): void" style="text;align=left;verticalAlign=top;spacingLeft=4;spacingRight=4;overflow=hidden;rotatable=0;points=[[0,0.5],[1,0.5]];portConstraint=eastwest;" vertex="1" parent="BAjZt_IiuYkgOVVZva09-68">
          <mxGeometry y="60" width="310" height="26" as="geometry" />
        </mxCell>
        <mxCell id="BAjZt_IiuYkgOVVZva09-74" value="...getters and setters" style="text;align=left;verticalAlign=top;spacingLeft=4;spacingRight=4;overflow=hidden;rotatable=0;points=[[0,0.5],[1,0.5]];portConstraint=eastwest;" vertex="1" parent="BAjZt_IiuYkgOVVZva09-68">
          <mxGeometry y="86" width="310" height="26" as="geometry" />
        </mxCell>
        <mxCell id="BAjZt_IiuYkgOVVZva09-76" value="ResponseBillList " style="swimlane;fontStyle=2;align=center;verticalAlign=top;childLayout=stackLayout;horizontal=1;startSize=26;horizontalStack=0;resizeParent=1;resizeLast=0;collapsible=1;marginBottom=0;rounded=1;shadow=0;strokeWidth=1;fillColor=#fff2cc;strokeColor=#d6b656;gradientColor=none;" vertex="1" parent="WIyWlLk6GJQsqaUBKTNV-1">
          <mxGeometry x="377.5" y="510" width="150" height="100" as="geometry">
            <mxRectangle x="230" y="140" width="160" height="26" as="alternateBounds" />
          </mxGeometry>
        </mxCell>
        <mxCell id="BAjZt_IiuYkgOVVZva09-77" value="- bills: List&lt;BillTO&gt;" style="text;align=left;verticalAlign=top;spacingLeft=4;spacingRight=4;overflow=hidden;rotatable=0;points=[[0,0.5],[1,0.5]];portConstraint=eastwest;" vertex="1" parent="BAjZt_IiuYkgOVVZva09-76">
          <mxGeometry y="26" width="150" height="26" as="geometry" />
        </mxCell>
        <mxCell id="BAjZt_IiuYkgOVVZva09-78" value="" style="line;html=1;strokeWidth=1;align=left;verticalAlign=middle;spacingTop=-1;spacingLeft=3;spacingRight=3;rotatable=0;labelPosition=right;points=[];portConstraint=eastwest;strokeColor=#D6B656;" vertex="1" parent="BAjZt_IiuYkgOVVZva09-76">
          <mxGeometry y="52" width="150" height="8" as="geometry" />
        </mxCell>
        <mxCell id="BAjZt_IiuYkgOVVZva09-80" value="...getters and setters" style="text;align=left;verticalAlign=top;spacingLeft=4;spacingRight=4;overflow=hidden;rotatable=0;points=[[0,0.5],[1,0.5]];portConstraint=eastwest;" vertex="1" parent="BAjZt_IiuYkgOVVZva09-76">
          <mxGeometry y="60" width="150" height="26" as="geometry" />
        </mxCell>
        <mxCell id="BAjZt_IiuYkgOVVZva09-81" value="&lt;h1&gt;Classes de DAO&lt;/h1&gt;" style="text;html=1;strokeColor=none;fillColor=none;align=left;verticalAlign=middle;whiteSpace=wrap;rounded=0;" vertex="1" parent="WIyWlLk6GJQsqaUBKTNV-1">
          <mxGeometry x="15" y="1200" width="440" height="30" as="geometry" />
        </mxCell>
        <mxCell id="BAjZt_IiuYkgOVVZva09-94" value="BillDAO " style="swimlane;fontStyle=2;align=center;verticalAlign=top;childLayout=stackLayout;horizontal=1;startSize=26;horizontalStack=0;resizeParent=1;resizeLast=0;collapsible=1;marginBottom=0;rounded=1;shadow=0;strokeWidth=1;fillColor=#fff2cc;strokeColor=#d6b656;gradientColor=none;" vertex="1" parent="WIyWlLk6GJQsqaUBKTNV-1">
          <mxGeometry x="50" y="1250" width="710" height="210" as="geometry">
            <mxRectangle x="230" y="140" width="160" height="26" as="alternateBounds" />
          </mxGeometry>
        </mxCell>
        <mxCell id="BAjZt_IiuYkgOVVZva09-95" value="- mongoDbConnection: MongoConnection " style="text;align=left;verticalAlign=top;spacingLeft=4;spacingRight=4;overflow=hidden;rotatable=0;points=[[0,0.5],[1,0.5]];portConstraint=eastwest;" vertex="1" parent="BAjZt_IiuYkgOVVZva09-94">
          <mxGeometry y="26" width="710" height="26" as="geometry" />
        </mxCell>
        <mxCell id="BAjZt_IiuYkgOVVZva09-97" value="" style="line;html=1;strokeWidth=1;align=left;verticalAlign=middle;spacingTop=-1;spacingLeft=3;spacingRight=3;rotatable=0;labelPosition=right;points=[];portConstraint=eastwest;strokeColor=#D6B656;" vertex="1" parent="BAjZt_IiuYkgOVVZva09-94">
          <mxGeometry y="52" width="710" height="8" as="geometry" />
        </mxCell>
        <mxCell id="BAjZt_IiuYkgOVVZva09-98" value="+ save(Bill bill): Boolean" style="text;align=left;verticalAlign=top;spacingLeft=4;spacingRight=4;overflow=hidden;rotatable=0;points=[[0,0.5],[1,0.5]];portConstraint=eastwest;" vertex="1" parent="BAjZt_IiuYkgOVVZva09-94">
          <mxGeometry y="60" width="710" height="26" as="geometry" />
        </mxCell>
        <mxCell id="BAjZt_IiuYkgOVVZva09-99" value="+ edit(Bill bill): Boolean" style="text;align=left;verticalAlign=top;spacingLeft=4;spacingRight=4;overflow=hidden;rotatable=0;points=[[0,0.5],[1,0.5]];portConstraint=eastwest;" vertex="1" parent="BAjZt_IiuYkgOVVZva09-94">
          <mxGeometry y="86" width="710" height="26" as="geometry" />
        </mxCell>
        <mxCell id="BAjZt_IiuYkgOVVZva09-100" value="+ find(String searchText, String minExpirationDate, String maxExpirationDate, String minPaidDate, String maxPaidDate): List&lt;Bill&gt;" style="text;align=left;verticalAlign=top;spacingLeft=4;spacingRight=4;overflow=hidden;rotatable=0;points=[[0,0.5],[1,0.5]];portConstraint=eastwest;" vertex="1" parent="BAjZt_IiuYkgOVVZva09-94">
          <mxGeometry y="112" width="710" height="26" as="geometry" />
        </mxCell>
        <mxCell id="BAjZt_IiuYkgOVVZva09-101" value="+ findOne(String id): Bill" style="text;align=left;verticalAlign=top;spacingLeft=4;spacingRight=4;overflow=hidden;rotatable=0;points=[[0,0.5],[1,0.5]];portConstraint=eastwest;" vertex="1" parent="BAjZt_IiuYkgOVVZva09-94">
          <mxGeometry y="138" width="710" height="26" as="geometry" />
        </mxCell>
        <mxCell id="BAjZt_IiuYkgOVVZva09-102" value="+  deleteOne(ObjectId id): Boolean" style="text;align=left;verticalAlign=top;spacingLeft=4;spacingRight=4;overflow=hidden;rotatable=0;points=[[0,0.5],[1,0.5]];portConstraint=eastwest;" vertex="1" parent="BAjZt_IiuYkgOVVZva09-94">
          <mxGeometry y="164" width="710" height="26" as="geometry" />
        </mxCell>
        <mxCell id="BAjZt_IiuYkgOVVZva09-106" value="AuditDAO " style="swimlane;fontStyle=2;align=center;verticalAlign=top;childLayout=stackLayout;horizontal=1;startSize=26;horizontalStack=0;resizeParent=1;resizeLast=0;collapsible=1;marginBottom=0;rounded=1;shadow=0;strokeWidth=1;fillColor=#fff2cc;strokeColor=#d6b656;gradientColor=none;" vertex="1" parent="WIyWlLk6GJQsqaUBKTNV-1">
          <mxGeometry x="340" y="1480" width="250" height="100" as="geometry">
            <mxRectangle x="230" y="140" width="160" height="26" as="alternateBounds" />
          </mxGeometry>
        </mxCell>
        <mxCell id="BAjZt_IiuYkgOVVZva09-107" value="- mongoDbConnection: MongoConnection " style="text;align=left;verticalAlign=top;spacingLeft=4;spacingRight=4;overflow=hidden;rotatable=0;points=[[0,0.5],[1,0.5]];portConstraint=eastwest;" vertex="1" parent="BAjZt_IiuYkgOVVZva09-106">
          <mxGeometry y="26" width="250" height="26" as="geometry" />
        </mxCell>
        <mxCell id="BAjZt_IiuYkgOVVZva09-108" value="" style="line;html=1;strokeWidth=1;align=left;verticalAlign=middle;spacingTop=-1;spacingLeft=3;spacingRight=3;rotatable=0;labelPosition=right;points=[];portConstraint=eastwest;strokeColor=#D6B656;" vertex="1" parent="BAjZt_IiuYkgOVVZva09-106">
          <mxGeometry y="52" width="250" height="8" as="geometry" />
        </mxCell>
        <mxCell id="BAjZt_IiuYkgOVVZva09-109" value="+ save(Audit audit): Boolean" style="text;align=left;verticalAlign=top;spacingLeft=4;spacingRight=4;overflow=hidden;rotatable=0;points=[[0,0.5],[1,0.5]];portConstraint=eastwest;" vertex="1" parent="BAjZt_IiuYkgOVVZva09-106">
          <mxGeometry y="60" width="250" height="26" as="geometry" />
        </mxCell>
        <mxCell id="BAjZt_IiuYkgOVVZva09-114" value="MongoConnection " style="swimlane;fontStyle=2;align=center;verticalAlign=top;childLayout=stackLayout;horizontal=1;startSize=26;horizontalStack=0;resizeParent=1;resizeLast=0;collapsible=1;marginBottom=0;rounded=1;shadow=0;strokeWidth=1;fillColor=#fff2cc;strokeColor=#d6b656;gradientColor=none;" vertex="1" parent="WIyWlLk6GJQsqaUBKTNV-1">
          <mxGeometry x="50" y="1480" width="270" height="190" as="geometry">
            <mxRectangle x="230" y="140" width="160" height="26" as="alternateBounds" />
          </mxGeometry>
        </mxCell>
        <mxCell id="BAjZt_IiuYkgOVVZva09-115" value="- client: MongoClient " style="text;align=left;verticalAlign=top;spacingLeft=4;spacingRight=4;overflow=hidden;rotatable=0;points=[[0,0.5],[1,0.5]];portConstraint=eastwest;" vertex="1" parent="BAjZt_IiuYkgOVVZva09-114">
          <mxGeometry y="26" width="270" height="26" as="geometry" />
        </mxCell>
        <mxCell id="BAjZt_IiuYkgOVVZva09-118" value="- database: MongoDatabase " style="text;align=left;verticalAlign=top;spacingLeft=4;spacingRight=4;overflow=hidden;rotatable=0;points=[[0,0.5],[1,0.5]];portConstraint=eastwest;" vertex="1" parent="BAjZt_IiuYkgOVVZva09-114">
          <mxGeometry y="52" width="270" height="26" as="geometry" />
        </mxCell>
        <mxCell id="BAjZt_IiuYkgOVVZva09-116" value="" style="line;html=1;strokeWidth=1;align=left;verticalAlign=middle;spacingTop=-1;spacingLeft=3;spacingRight=3;rotatable=0;labelPosition=right;points=[];portConstraint=eastwest;strokeColor=#D6B656;" vertex="1" parent="BAjZt_IiuYkgOVVZva09-114">
          <mxGeometry y="78" width="270" height="8" as="geometry" />
        </mxCell>
        <mxCell id="BAjZt_IiuYkgOVVZva09-117" value="+ MongoConnection(): void" style="text;align=left;verticalAlign=top;spacingLeft=4;spacingRight=4;overflow=hidden;rotatable=0;points=[[0,0.5],[1,0.5]];portConstraint=eastwest;" vertex="1" parent="BAjZt_IiuYkgOVVZva09-114">
          <mxGeometry y="86" width="270" height="26" as="geometry" />
        </mxCell>
        <mxCell id="BAjZt_IiuYkgOVVZva09-119" value="+ close(): void" style="text;align=left;verticalAlign=top;spacingLeft=4;spacingRight=4;overflow=hidden;rotatable=0;points=[[0,0.5],[1,0.5]];portConstraint=eastwest;" vertex="1" parent="BAjZt_IiuYkgOVVZva09-114">
          <mxGeometry y="112" width="270" height="26" as="geometry" />
        </mxCell>
        <mxCell id="BAjZt_IiuYkgOVVZva09-121" value="+ getDatabase(): MongoDatabase " style="text;align=left;verticalAlign=top;spacingLeft=4;spacingRight=4;overflow=hidden;rotatable=0;points=[[0,0.5],[1,0.5]];portConstraint=eastwest;" vertex="1" parent="BAjZt_IiuYkgOVVZva09-114">
          <mxGeometry y="138" width="270" height="26" as="geometry" />
        </mxCell>
        <mxCell id="BAjZt_IiuYkgOVVZva09-120" value="+ setDatabase(MongoDatabase database): void" style="text;align=left;verticalAlign=top;spacingLeft=4;spacingRight=4;overflow=hidden;rotatable=0;points=[[0,0.5],[1,0.5]];portConstraint=eastwest;" vertex="1" parent="BAjZt_IiuYkgOVVZva09-114">
          <mxGeometry y="164" width="270" height="26" as="geometry" />
        </mxCell>
        <mxCell id="BAjZt_IiuYkgOVVZva09-123" value="&lt;h1&gt;Classes de MDB&lt;/h1&gt;" style="text;html=1;strokeColor=none;fillColor=none;align=left;verticalAlign=middle;whiteSpace=wrap;rounded=0;" vertex="1" parent="WIyWlLk6GJQsqaUBKTNV-1">
          <mxGeometry x="15" y="1699" width="440" height="30" as="geometry" />
        </mxCell>
        <mxCell id="BAjZt_IiuYkgOVVZva09-124" value="BillMDB " style="swimlane;fontStyle=2;align=center;verticalAlign=top;childLayout=stackLayout;horizontal=1;startSize=26;horizontalStack=0;resizeParent=1;resizeLast=0;collapsible=1;marginBottom=0;rounded=1;shadow=0;strokeWidth=1;fillColor=#fff2cc;strokeColor=#d6b656;gradientColor=none;" vertex="1" parent="WIyWlLk6GJQsqaUBKTNV-1">
          <mxGeometry x="50" y="1739" width="270" height="70" as="geometry">
            <mxRectangle x="230" y="140" width="160" height="26" as="alternateBounds" />
          </mxGeometry>
        </mxCell>
        <mxCell id="BAjZt_IiuYkgOVVZva09-127" value="" style="line;html=1;strokeWidth=1;align=left;verticalAlign=middle;spacingTop=-1;spacingLeft=3;spacingRight=3;rotatable=0;labelPosition=right;points=[];portConstraint=eastwest;strokeColor=#D6B656;" vertex="1" parent="BAjZt_IiuYkgOVVZva09-124">
          <mxGeometry y="26" width="270" height="8" as="geometry" />
        </mxCell>
        <mxCell id="BAjZt_IiuYkgOVVZva09-128" value="+ onMessage(Message message): void" style="text;align=left;verticalAlign=top;spacingLeft=4;spacingRight=4;overflow=hidden;rotatable=0;points=[[0,0.5],[1,0.5]];portConstraint=eastwest;" vertex="1" parent="BAjZt_IiuYkgOVVZva09-124">
          <mxGeometry y="34" width="270" height="24" as="geometry" />
        </mxCell>
        <mxCell id="BAjZt_IiuYkgOVVZva09-132" value="&lt;h1&gt;Classes de Serviço/Rotas&lt;/h1&gt;" style="text;html=1;strokeColor=none;fillColor=none;align=left;verticalAlign=middle;whiteSpace=wrap;rounded=0;" vertex="1" parent="WIyWlLk6GJQsqaUBKTNV-1">
          <mxGeometry x="15" y="1850" width="440" height="30" as="geometry" />
        </mxCell>
        <mxCell id="BAjZt_IiuYkgOVVZva09-133" value="BillServiceImpl " style="swimlane;fontStyle=2;align=center;verticalAlign=top;childLayout=stackLayout;horizontal=1;startSize=26;horizontalStack=0;resizeParent=1;resizeLast=0;collapsible=1;marginBottom=0;rounded=1;shadow=0;strokeWidth=1;fillColor=#fff2cc;strokeColor=#d6b656;gradientColor=none;" vertex="1" parent="WIyWlLk6GJQsqaUBKTNV-1">
          <mxGeometry x="50" y="1890" width="720" height="190" as="geometry">
            <mxRectangle x="230" y="140" width="160" height="26" as="alternateBounds" />
          </mxGeometry>
        </mxCell>
        <mxCell id="BAjZt_IiuYkgOVVZva09-134" value="- billBean: BillLocal " style="text;align=left;verticalAlign=top;spacingLeft=4;spacingRight=4;overflow=hidden;rotatable=0;points=[[0,0.5],[1,0.5]];portConstraint=eastwest;" vertex="1" parent="BAjZt_IiuYkgOVVZva09-133">
          <mxGeometry y="26" width="720" height="26" as="geometry" />
        </mxCell>
        <mxCell id="BAjZt_IiuYkgOVVZva09-136" value="" style="line;html=1;strokeWidth=1;align=left;verticalAlign=middle;spacingTop=-1;spacingLeft=3;spacingRight=3;rotatable=0;labelPosition=right;points=[];portConstraint=eastwest;strokeColor=#D6B656;" vertex="1" parent="BAjZt_IiuYkgOVVZva09-133">
          <mxGeometry y="52" width="720" height="8" as="geometry" />
        </mxCell>
        <mxCell id="BAjZt_IiuYkgOVVZva09-137" value="+ createBill(BillTO bill): String" style="text;align=left;verticalAlign=top;spacingLeft=4;spacingRight=4;overflow=hidden;rotatable=0;points=[[0,0.5],[1,0.5]];portConstraint=eastwest;" vertex="1" parent="BAjZt_IiuYkgOVVZva09-133">
          <mxGeometry y="60" width="720" height="26" as="geometry" />
        </mxCell>
        <mxCell id="BAjZt_IiuYkgOVVZva09-138" value="+ updateBill(String id, BillTO bill): String" style="text;align=left;verticalAlign=top;spacingLeft=4;spacingRight=4;overflow=hidden;rotatable=0;points=[[0,0.5],[1,0.5]];portConstraint=eastwest;" vertex="1" parent="BAjZt_IiuYkgOVVZva09-133">
          <mxGeometry y="86" width="720" height="26" as="geometry" />
        </mxCell>
        <mxCell id="BAjZt_IiuYkgOVVZva09-139" value="+ listBills(String searchText, String minExpirationDate, String maxExpirationDate, String minPaidDate, String maxPaidDate): String" style="text;align=left;verticalAlign=top;spacingLeft=4;spacingRight=4;overflow=hidden;rotatable=0;points=[[0,0.5],[1,0.5]];portConstraint=eastwest;" vertex="1" parent="BAjZt_IiuYkgOVVZva09-133">
          <mxGeometry y="112" width="720" height="26" as="geometry" />
        </mxCell>
        <mxCell id="BAjZt_IiuYkgOVVZva09-140" value="+ deleteBill(String id): String " style="text;align=left;verticalAlign=top;spacingLeft=4;spacingRight=4;overflow=hidden;rotatable=0;points=[[0,0.5],[1,0.5]];portConstraint=eastwest;" vertex="1" parent="BAjZt_IiuYkgOVVZva09-133">
          <mxGeometry y="138" width="720" height="26" as="geometry" />
        </mxCell>
        <mxCell id="BAjZt_IiuYkgOVVZva09-141" value="&lt;h1&gt;Classes de Servlet&lt;/h1&gt;" style="text;html=1;strokeColor=none;fillColor=none;align=left;verticalAlign=middle;whiteSpace=wrap;rounded=0;" vertex="1" parent="WIyWlLk6GJQsqaUBKTNV-1">
          <mxGeometry x="15" y="2110" width="440" height="30" as="geometry" />
        </mxCell>
        <mxCell id="BAjZt_IiuYkgOVVZva09-142" value="ReadmeServlet " style="swimlane;fontStyle=2;align=center;verticalAlign=top;childLayout=stackLayout;horizontal=1;startSize=26;horizontalStack=0;resizeParent=1;resizeLast=0;collapsible=1;marginBottom=0;rounded=1;shadow=0;strokeWidth=1;fillColor=#fff2cc;strokeColor=#d6b656;gradientColor=none;" vertex="1" parent="WIyWlLk6GJQsqaUBKTNV-1">
          <mxGeometry x="50" y="2150" width="390" height="90" as="geometry">
            <mxRectangle x="230" y="140" width="160" height="26" as="alternateBounds" />
          </mxGeometry>
        </mxCell>
        <mxCell id="BAjZt_IiuYkgOVVZva09-143" value="- serialVersionUID: long " style="text;align=left;verticalAlign=top;spacingLeft=4;spacingRight=4;overflow=hidden;rotatable=0;points=[[0,0.5],[1,0.5]];portConstraint=eastwest;" vertex="1" parent="BAjZt_IiuYkgOVVZva09-142">
          <mxGeometry y="26" width="390" height="26" as="geometry" />
        </mxCell>
        <mxCell id="BAjZt_IiuYkgOVVZva09-144" value="" style="line;html=1;strokeWidth=1;align=left;verticalAlign=middle;spacingTop=-1;spacingLeft=3;spacingRight=3;rotatable=0;labelPosition=right;points=[];portConstraint=eastwest;strokeColor=#D6B656;" vertex="1" parent="BAjZt_IiuYkgOVVZva09-142">
          <mxGeometry y="52" width="390" height="8" as="geometry" />
        </mxCell>
        <mxCell id="BAjZt_IiuYkgOVVZva09-145" value="+  doGet(HttpServletRequest req, HttpServletResponse resp): void" style="text;align=left;verticalAlign=top;spacingLeft=4;spacingRight=4;overflow=hidden;rotatable=0;points=[[0,0.5],[1,0.5]];portConstraint=eastwest;" vertex="1" parent="BAjZt_IiuYkgOVVZva09-142">
          <mxGeometry y="60" width="390" height="26" as="geometry" />
        </mxCell>
        <mxCell id="BAjZt_IiuYkgOVVZva09-149" value="&lt;h1&gt;&lt;font style=&quot;font-size: 48px;&quot;&gt;Bill Project&lt;/font&gt;&lt;/h1&gt;" style="text;html=1;strokeColor=none;fillColor=none;align=center;verticalAlign=middle;whiteSpace=wrap;rounded=0;" vertex="1" parent="WIyWlLk6GJQsqaUBKTNV-1">
          <mxGeometry x="196" y="30" width="435" height="30" as="geometry" />
        </mxCell>
        <mxCell id="BAjZt_IiuYkgOVVZva09-150" value="&lt;h1&gt;&lt;font style=&quot;font-size: 14px;&quot;&gt;bill-dm110-java-ee - API de Contas/Boletos&lt;/font&gt;&lt;/h1&gt;" style="text;html=1;strokeColor=none;fillColor=none;align=center;verticalAlign=middle;whiteSpace=wrap;rounded=0;" vertex="1" parent="WIyWlLk6GJQsqaUBKTNV-1">
          <mxGeometry x="196" y="70" width="435" height="30" as="geometry" />
        </mxCell>
      </root>
    </mxGraphModel>
  </diagram>
</mxfile>
